# xmcd
# Copyright (C) 1995-1998 Ti Kan
#
# Track frame offsets:
#       150
#       18240
#       38959
#       59185
#       76648
#       96133
#       114965
#       138597
#       153773
#       170998
#       192756
#       213147
#
# Disc length: 3095 seconds
#
# Revision: 2
# Processed by: cddbd v1.5.1PL0 Copyright (c) Steve Scherf et al.
# Submitted via: CD-Transfer v1.0
#
DISCID=990c150c
DTITLE=Florian Ast - Astrein
DYEAR=2004
DGENRE=
TTITLE0=Radio
TTITLE1=Liebeslied
TTITLE2=Schmätterling
TTITLE3=Migros
TTITLE4=Im All
TTITLE5=Füdlegwönlichi Schwizer
TTITLE6=Gränzelos
TTITLE7=Julia
TTITLE8=I Däm Summer
TTITLE9=Touche I Ne Wulche
TTITLE10=Pretty Woman
TTITLE11=Orion
EXTD=
EXTT0=
EXTT1=
EXTT2=
EXTT3=
EXTT4=
EXTT5=
EXTT6=
EXTT7=
EXTT8=
EXTT9=
EXTT10=
EXTT11=
PLAYORDER=
